<svg height="512" viewBox="0 0 64 64" width="512" xmlns="http://www.w3.org/2000/svg"><g id="Layer_16" data-name="Layer 16"><path d="m7 9h50a4 4 0 0 1 4 4v32a0 0 0 0 1 0 0h-58a0 0 0 0 1 0 0v-32a4 4 0 0 1 4-4z" fill="#ffcd00"/><path d="m31 45h30v-30a30 30 0 0 1 -30 30z" fill="#ebbf00"/><path d="m61 45v2a4 4 0 0 1 -4 4h-50a4 4 0 0 1 -4-4v-2z" fill="#939598"/><path d="m27 51h10v6h-10z" fill="#a7a9ac"/><path d="m21 57a2 2 0 0 0 -2 2v2h26v-2a2 2 0 0 0 -2-2z" fill="#6d6e71"/><path d="m27 51h10v2h-10z" fill="#808285"/><path d="m31.67 40.99c.11.01.22.01.33.01-.143 0-.281-.018-.424-.021.032.002.063.009.094.011z" fill="#9bc9ff"/><path d="m31.576 3.021c.143 0 .281-.021.424-.021-.11 0-.22 0-.33.01-.031.002-.062.009-.094.011z" fill="#9bc9ff"/><path d="m22 22h-9a18.906 18.906 0 0 0 4.667 12.446 21.807 21.807 0 0 1 5.853-2.386 32.507 32.507 0 0 1 -1.52-10.06z" fill="#006df0"/><path d="m23.52 32.06a21.807 21.807 0 0 0 -5.853 2.386 18.932 18.932 0 0 0 13.909 6.533c-3.4-.268-6.362-3.767-8.056-8.919z" fill="#005ece"/><path d="m23.52 32.06c1.694 5.152 4.656 8.651 8.056 8.919.143 0 .281.021.424.021v-10a33.2 33.2 0 0 0 -8.48 1.06z" fill="#004fac"/><path d="m51 22a19 19 0 0 1 -19 19v-38a19 19 0 0 1 19 19z" fill="#ff6243"/><path d="m23.52 32.06a33.2 33.2 0 0 1 8.48-1.06v-9h-10a32.507 32.507 0 0 0 1.52 10.06z" fill="#005ece"/><path d="m23.52 11.94a21.807 21.807 0 0 1 -5.853-2.386 18.906 18.906 0 0 0 -4.667 12.446h9a32.507 32.507 0 0 1 1.52-10.06z" fill="#2488ff"/><path d="m31.576 3.021a18.932 18.932 0 0 0 -13.909 6.533 21.807 21.807 0 0 0 5.853 2.386c1.694-5.152 4.656-8.651 8.056-8.919z" fill="#57a4ff"/><path d="m23.52 11.94a33.2 33.2 0 0 0 8.48 1.06v-10c-.143 0-.281.018-.424.021-3.4.268-6.362 3.767-8.056 8.919z" fill="#2488ff"/><path d="m32 22v-9a33.2 33.2 0 0 1 -8.48-1.06 32.507 32.507 0 0 0 -1.52 10.06z" fill="#006df0"/><path d="m33 47h-2a1 1 0 0 0 0 2h2a1 1 0 0 0 0-2z" fill="#f1f2f2"/><path d="m40 23c1.626 0 3 .916 3 2s-1.374 2-3 2-3-.916-3-2a1 1 0 0 0 -2 0c0 1.932 1.721 3.547 4 3.919v1.081a1 1 0 0 0 2 0v-1.081c2.279-.372 4-1.987 4-3.919 0-2.206-2.243-4-5-4-1.626 0-3-.916-3-2s1.374-2 3-2 3 .916 3 2a1 1 0 0 0 2 0c0-1.932-1.721-3.547-4-3.919v-1.081a1 1 0 0 0 -2 0v1.081c-2.279.372-4 1.987-4 3.919 0 2.206 2.243 4 5 4z" fill="#ed1c24"/></g></svg>