<?xml version="1.0" encoding="UTF-8"?>
<svg width="38px" height="38px" viewBox="0 0 38 38" version="1.1" xmlns="http://www.w3.org/2000/svg" xmlns:xlink="http://www.w3.org/1999/xlink">
    <title>Instagram Copy</title>
    <defs>
        <polygon id="path-1" points="0 0 23.99985 0 23.99985 23.9995 0 23.9995"></polygon>
    </defs>
    <g id="Instagram-Copy" stroke="none" stroke-width="1" fill="none" fill-rule="evenodd">
        <rect fill="#FFFFFF" opacity="0" x="0" y="0" width="38" height="38"></rect>
        <g id="Group-8" transform="translate(7.000000, 7.000000)">
            <g id="Group-3">
                <mask id="mask-2" fill="white">
                    <use xlink:href="#path-1"></use>
                </mask>
                <g id="Clip-2"></g>
                <path d="M22.25,8.2492 L16.8185,8.2492 L16.7455,8.1772 C15.4825,6.9347 13.797,6.2507 12,6.2507 C10.203,6.2507 8.5175,6.9347 7.254,8.1772 L7.181,8.2492 L1.75,8.2492 L1.75,3.2002 C1.75,2.3597 2.36,1.7497 3.2,1.7497 L20.8,1.7497 C21.64,1.7497 22.25,2.3597 22.25,3.2002 L22.25,8.2492 Z M12,18.0002 C9.2,18.0002 7,15.7992 7,12.9997 C7,10.2007 9.2,7.9992 12,7.9992 C14.7995,7.9992 17,10.2007 17,12.9997 C17,15.7992 14.7995,18.0002 12,18.0002 L12,18.0002 Z M20.8,-0.0003 L3.2,-0.0003 C1.3995,-0.0003 0,1.4002 0,3.2002 L0,20.7997 C0,22.5992 1.3995,23.9997 3.2,23.9997 L20.8,23.9997 C22.5995,23.9997 24,22.5992 24,20.7997 L24,3.2002 C24,1.4002 22.5995,-0.0003 20.8,-0.0003 L20.8,-0.0003 Z" id="Fill-1" fill="#EAEAEA" mask="url(#mask-2)"></path>
            </g>
            <path d="M14.99995,12.9999 L14.99995,12.9999 C14.99995,14.7004 13.69995,16.0009 11.99995,16.0009 C10.29995,16.0009 8.99995,14.7004 8.99995,12.9999 C8.99995,12.7004 9.09995,12.3989 9.09995,12.0999 C9.39995,12.5999 9.89995,12.9999 10.49995,12.9999 C11.29995,12.9999 11.99995,12.2999 11.99995,11.4999 C11.99995,10.9014 11.60045,10.2999 11.10045,10.0994 C11.39995,10.0994 11.69995,9.9999 11.99995,9.9999 C13.69995,9.9999 14.99995,11.2999 14.99995,12.9999" id="Fill-4" fill="#EAEAEA"></path>
            <path d="M20.9999,6.70045 C20.9999,6.89995 20.9004,6.99895 20.6999,6.99895 L17.2999,6.99895 C17.0994,6.99895 16.9999,6.89995 16.9999,6.70045 L16.9999,3.29995 C16.9999,3.10045 17.0994,3.00045 17.2999,3.00045 L20.6999,3.00045 C20.9004,3.00045 20.9999,3.10045 20.9999,3.29995 L20.9999,6.70045 Z M3.1999,1.99995 C2.4999,1.99995 1.9999,2.50045 1.9999,3.20045 L1.9999,7.99895 L7.0789,7.99895 C8.3379,6.76095 10.0694,6.00045 11.9999,6.00045 C13.9294,6.00045 15.6619,6.76095 16.9209,7.99895 L21.9999,7.99895 L21.9999,3.20045 C21.9999,2.50045 21.4999,1.99995 20.7999,1.99995 L3.1999,1.99995 Z" id="Fill-6" fill="#EAEAEA"></path>
        </g>
        <rect id="Outline" stroke="#FFFFFF" stroke-width="0.5" x="0.25" y="0.25" width="37" height="37"></rect>
    </g>
</svg>