<?xml version="1.0" encoding="UTF-8"?>
<svg width="393px" height="38px" viewBox="0 0 393 38" version="1.1" xmlns="http://www.w3.org/2000/svg" xmlns:xlink="http://www.w3.org/1999/xlink">
    <title>RedWaste_White_logo</title>
    <defs>
        <polygon id="path-1" points="0 0 393 0 393 38 0 38"></polygon>
    </defs>
    <g id="RedWaste_White_logo" stroke="none" stroke-width="1" fill="none" fill-rule="evenodd">
        <rect fill="#EE4644" opacity="0" x="0" y="0" width="393" height="38"></rect>
        <g id="Group-3">
            <mask id="mask-2" fill="white">
                <use xlink:href="#path-1"></use>
            </mask>
            <g id="Clip-2"></g>
            <path d="M367.722566,20.3076703 L393,20.2328296 L392.983686,14.8374991 L367.706252,14.9123398 L367.714409,17.5099907 L392.991843,17.43515 L392.993202,18.035236 L367.715768,18.1087159 L367.722566,20.3076703 Z M367.722566,5.47017117 L393,5.39533052 L392.983686,0 L367.706252,0.0748406503 L367.714409,2.67249158 L392.991843,2.59765093 L392.993202,3.19773688 L367.715768,3.27121679 L367.722566,5.47017117 Z M332.547874,5.66883907 L357.825308,5.59535916 L357.810353,0.200028647 L332.532919,0.273508558 L332.539716,2.87252023 L357.817151,2.79767958 L357.81851,3.39640478 L332.541076,3.47124543 L332.547874,5.66883907 Z M328.538668,28.6816587 C329.638515,25.8526821 329.536551,22.5215928 328.288518,20.5798181 C325.948795,16.9357588 322.955146,15.0933181 319.137633,14.9463582 C317.039903,14.8674354 314.523444,15.1205328 311.607287,15.4158132 C306.156998,15.9655518 299.375745,16.6513643 292.82289,15.3001504 C289.565495,14.6279453 287.622751,13.4563489 287.626829,12.1650075 C287.630908,10.0776337 290.83664,7.19967056 293.119264,6.74110148 C297.532244,5.85662107 297.530885,5.85526033 320.951224,6.02943494 L324.004691,6.0525675 L324.044117,0.655876244 L320.990649,0.634104419 C297.018348,0.457208336 297.016989,0.457208336 292.028934,1.45735157 C287.51127,2.36360381 282.248594,7.23096756 282.234971,12.1500394 C282.228201,14.566712 283.454482,18.8761727 291.735279,20.5839003 C299.097044,22.1038459 306.333735,21.3717682 312.149733,20.783929 C314.864682,20.5090597 317.207123,20.2722911 318.929627,20.3389673 C320.938988,20.4151687 322.381432,21.3608823 323.735507,23.4673065 C323.905446,23.8020483 324.152878,25.3206331 323.401067,26.9957029 C322.603032,28.7728282 321.005604,29.9866075 318.652286,30.6057438 L318.169659,30.7336532 C316.577669,31.1568431 315.075406,31.5541789 313.626165,31.6126907 C312.620125,31.6535129 311.397922,31.7215498 310.027533,31.7977512 C304.325733,32.1175249 289.178034,32.9652653 286.448131,30.3730574 L282.738019,34.2879037 C285.454327,36.8651436 291.36957,37.598582 298.622574,37.598582 C302.26607,37.598582 306.246726,37.4135214 310.327985,37.1849173 C311.665746,37.1100766 312.860759,37.0434004 313.842328,37.003939 C315.882957,36.9222946 317.74685,36.4269856 319.549565,35.9493662 L320.022676,35.8241782 C324.144721,34.7410299 327.168279,32.2032515 328.538668,28.6816587 L328.538668,28.6816587 Z M326.272359,27.866576 C325.502875,29.8396476 323.687924,32.4304949 319.414973,33.566712 L318.936425,33.6946215 C317.264223,34.1436654 315.534922,34.6063167 313.760757,34.6784359 C312.771031,34.719258 311.566502,34.7859343 310.217865,34.8621356 C306.964549,35.0458354 302.846583,35.2798825 298.827861,35.2798825 C292.644793,35.2798825 286.694203,34.7287832 284.476836,32.6005873 L284.892848,32.1665115 C288.362326,35.4962401 302.021358,34.7233403 310.183877,34.2620497 C311.536593,34.1858483 312.743841,34.1178114 313.736286,34.0769892 C315.443834,34.0089522 317.064375,33.5735157 318.78144,33.1135859 L319.259989,32.9856764 C323.289587,31.913414 324.993057,29.4912984 325.713599,27.647497 C326.636709,25.2811717 326.291393,23.0196233 325.750306,22.1691614 C323.958467,19.3483492 321.819953,17.9835279 319.022074,17.8746688 C317.137788,17.8025496 314.726011,18.0488434 311.929492,18.3345986 C306.29023,18.9101912 299.273781,19.6273007 292.28996,18.1713099 C286.023963,16.8636396 284.716111,14.1163074 284.721549,12.042541 C284.731065,8.36582396 289.044802,4.34211846 292.57002,3.62773043 C297.305206,2.66704863 297.305206,2.66840937 320.970257,2.84394471 L324.014207,2.86707728 L324.010129,3.46852396 L320.966178,3.44539139 C297.363665,3.27121679 297.362305,3.26849531 292.719567,4.21012676 C289.449937,4.87416744 285.33197,8.69104061 285.322454,12.0439017 C285.314297,14.6987037 287.766859,16.6132636 292.412317,17.5821099 C299.30505,19.0190503 306.271197,18.3087445 311.868314,17.7358734 C314.687945,17.4487574 317.125553,17.1997422 319.046545,17.2745828 C322.057868,17.3916064 324.350007,18.843515 326.257405,21.8453055 C326.967071,22.963833 327.214502,25.4539855 326.272359,27.866576 L326.272359,27.866576 Z M275.790905,35.6649717 L281.116119,34.8335601 C278.165975,15.9084008 265.114645,3.9121249 256.791704,1.43694049 C252.129932,0.0517080857 249.743986,1.72949939 248.733867,2.85346988 C244.248832,7.84738237 233.58073,31.167729 232.38028,33.8102843 L237.285404,36.0459787 C240.45579,29.0735515 249.413624,10.1688033 252.743073,6.46078923 C252.812408,6.3832271 253.53295,6.09611115 255.256813,6.60910979 C262.024471,8.62164291 273.230941,19.2476545 275.790905,35.6649717 L275.790905,35.6649717 Z M278.603738,35.2240922 C275.72157,16.5561126 263.268426,6.41044188 255.60213,4.14617203 C253.484008,3.52023204 251.847153,3.56649717 251.221777,4.26999928 C246.868615,9.16593855 246.868615,9.16593855 237.105949,30.8615627 L235.254291,34.975077 L234.702329,34.7260617 L236.553986,30.6125474 C246.169825,9.23941846 246.353359,8.83119673 250.769059,3.86585977 C251.565734,2.96913271 253.390201,2.85891284 255.773428,3.56377569 C263.587912,5.87294994 276.277611,16.1846308 279.201924,35.131562 L278.603738,35.2240922 Z M242.595664,4.70135358 L239.340989,0.327938122 C238.586459,0.889923369 231.890855,5.96411946 229.435574,10.7212633 C227.253554,14.9504404 220.506289,26.6500752 220.438313,26.7670988 L220.368978,26.896369 C219.448588,28.6993483 217.386206,31.2861133 216.045725,31.2861133 C216.038928,31.2861133 216.030771,31.2861133 216.022614,31.2861133 C215.264005,31.2697844 213.943917,30.1322065 212.497395,26.9970637 C212.00797,25.6649001 209.85586,20.52811 205.786837,20.402922 C201.554671,20.2736518 199.311474,25.5301869 198.575977,27.2583256 C197.183835,30.5254601 195.862388,31.7147461 195.154082,31.7419609 C195.143206,31.7419609 195.132329,31.7419609 195.120094,31.7419609 C193.824477,31.7419609 191.671008,29.1007663 190.685361,27.1875671 L190.617385,27.0623791 C190.549409,26.9453556 183.803504,15.2457208 181.621484,11.0165437 C179.166203,6.25939984 172.470599,1.18656449 171.71471,0.623218506 L168.460034,4.99663396 C170.2342,6.3206331 175.188267,10.4341474 176.780257,13.5189429 C178.963636,17.7508415 185.285373,28.7252023 185.865886,29.7321493 C186.593225,31.1391535 190.019199,37.1958032 195.117375,37.1958032 C195.190789,37.1958032 195.265562,37.1944425 195.338975,37.191721 C198.657548,37.0774189 201.432315,34.4552747 203.587144,29.3974074 C204.567353,27.0950369 205.315085,26.2472964 205.645447,25.957459 C206.177017,26.4187496 206.981849,27.7631598 207.407377,28.9442813 L207.497105,29.164721 C209.759335,34.1246151 212.592561,36.6732794 215.917931,36.7385949 C215.960076,36.7399556 216.002221,36.7399556 216.044366,36.7399556 C221.207798,36.7385949 224.656884,30.4723913 225.191173,29.4341474 C225.778482,28.4163145 232.094782,17.4528396 234.275442,13.2236625 C235.868791,10.1375063 240.821499,6.02535272 242.595664,4.70135358 L242.595664,4.70135358 Z M240.90307,2.49695624 C240.835094,2.54866433 234.105502,7.71947289 231.942516,12.0180477 C229.742824,16.3846595 223.009153,28.3523598 222.941178,28.4734656 C222.82426,28.7129557 219.823813,34.7138151 215.896179,34.6144811 C213.593163,34.5695767 211.498153,32.4617919 209.666888,28.3469169 C209.641057,28.2761584 207.996046,23.6061018 205.690311,23.5367041 C205.673997,23.5367041 205.657683,23.5367041 205.641369,23.5367041 C204.250586,23.5367041 202.783671,25.2988613 201.394249,28.6421972 C199.652712,32.8332737 197.610723,34.9982096 195.32538,35.0757717 C195.283235,35.0771324 195.241091,35.0784932 195.198946,35.0784932 C191.295782,35.0784932 188.239596,29.0204827 188.110442,28.7605815 C188.049264,28.6530831 181.315594,16.6853828 179.117261,12.318771 C176.952915,8.02019623 170.223323,2.84938767 170.156707,2.79767958 L170.525135,2.3146172 C170.806555,2.52825324 177.432823,7.62149968 179.659707,12.0439017 C181.852602,16.3996276 188.579474,28.3550813 188.64745,28.4748263 C188.684157,28.549667 191.725389,34.5831841 195.306347,34.4675213 C197.330663,34.3981236 199.190477,32.3597364 200.832769,28.4067894 C202.366301,24.7205472 204.004514,22.8658598 205.707985,22.9284538 C208.43245,23.0114589 210.160391,27.9155626 210.232446,28.1237556 C211.949511,31.9787295 213.860987,33.9640478 215.907055,34.00487 C215.928807,34.0062308 215.9492,34.0062308 215.970952,34.0062308 C219.496171,34.0062308 222.37562,28.2475829 222.40417,28.1890711 C222.480303,28.0543579 229.205816,16.0989042 231.398711,11.7431784 C233.625594,7.32077634 240.253222,2.2275299 240.533282,2.01389386 L240.90307,2.49695624 Z M141.464175,17.2011029 C141.262967,12.57459 138.875662,6.33151901 128.641244,2.8575521 C123.00878,0.945713672 115.618464,0.0367399556 106.675585,0.146959822 C103.234656,0.190503473 100.246446,0.386449903 98.3458457,0.542934899 C98.2588368,0.549738595 98.174547,0.55654229 98.0916167,0.563345986 L97.7422217,0.552460073 L95.704311,0.781064241 C95.4867888,0.806918284 95.2937379,0.832772327 95.1197202,0.859987109 L94.9688142,0.880398195 L94.9688142,0.884480413 C94.0117167,1.05185132 93.6854335,1.28861992 93.236794,1.82475113 L92.7324145,2.42211559 L92.7011457,4.41831985 L92.7011457,33.7259185 L92.7500882,35.788799 L93.3944976,36.4079353 C94.0756139,37.0937478 94.3665497,37.2502328 98.5919176,37.5890568 C100.444935,37.7373774 103.313508,37.9074697 106.702775,37.9074697 C106.916219,37.9074697 107.132381,37.906109 107.349903,37.9047483 C113.753212,37.8639261 122.86875,37.1645062 129.931422,34.0661033 C137.805724,30.6125474 141.793178,24.7804197 141.464175,17.2011029 L141.464175,17.2011029 Z M128.963449,32.069899 C122.334461,34.9777985 113.50714,35.7289264 106.524679,35.7289264 C100.117292,35.7289264 95.2638286,35.0961828 95.0843729,34.9165652 L95.0762158,34.7859343 L95.0762158,34.66755 C95.0938895,34.6280885 95.0626206,34.5097042 95.0884514,34.4852109 L95.0884514,3.97607964 C95.0680587,3.95566855 95.0925299,3.8876316 95.0762158,3.85769534 L95.0762158,3.70393182 L95.0653397,3.56377569 C95.0816538,3.54608608 95.14827,3.52159278 95.2638286,3.49573874 L95.3304448,3.48349209 L95.6703232,3.41545513 L95.8062745,3.39912626 C99.3178978,2.83986249 116.704716,1.5417174 127.863602,5.3286543 C135.049991,7.76709876 138.818562,11.8642842 139.063274,17.5059085 C139.350132,24.1027716 135.951348,29.0027931 128.963449,32.069899 L128.963449,32.069899 Z M138.465089,17.5317625 C138.325059,14.3204182 136.960107,11.6071045 134.4083,9.46666189 C124.421314,1.09131276 98.984817,3.63997708 95.6866373,4.01145886 L95.6879968,34.4838502 C98.9277175,35.0431139 122.927209,37.1019122 133.40226,28.7646638 C136.961467,25.931605 138.664937,22.1514717 138.465089,17.5317625 L138.465089,17.5317625 Z M136.079142,17.4365108 C136.238205,21.1023419 135.026879,24.0047984 132.374468,26.3098904 C124.196995,33.4143092 104.982991,32.8101411 98.0916167,32.1529041 L98.0916167,5.96411946 C107.088877,5.12862565 125.457264,4.85647783 132.896521,11.1199599 C134.927634,12.8304089 135.969022,14.8960109 136.079142,17.4365108 L136.079142,17.4365108 Z M56.8575728,37.3182697 L82.135007,37.2447898 L82.1186928,31.8480985 L56.8412586,31.9229392 L56.8494157,34.5205901 L82.1268499,34.4457495 L82.1282094,35.0458354 L56.8507752,35.1206761 L56.8575728,37.3182697 Z M56.8575728,21.5064814 L82.135007,21.4316408 L82.1186928,16.0363102 L56.8412586,16.1111509 L56.8494157,18.7088018 L82.1268499,18.6353219 L82.1282094,19.2340471 L56.8507752,19.3088878 L56.8575728,21.5064814 Z M56.8575728,6.66898231 L82.135007,6.59414166 L82.1186928,1.19881114 L56.8412586,1.27365179 L56.8494157,3.87130273 L82.1268499,3.79646208 L82.1282094,4.39654802 L56.8507752,4.47002793 L56.8575728,6.66898231 Z M33.2686544,19.3306596 C34.7845119,18.9183557 36.1249922,18.4475399 37.2411528,17.8991621 C42.1367608,15.4988183 42.5677266,12.0384588 42.3896303,10.1892144 C41.8675772,4.79660531 35.1189522,1.86965552 21.1513107,0.974289193 C15.0457357,0.582396333 9.04892173,0.685812504 5.60799311,0.804196806 L5.6066336,0.751127981 L2.72990307,0.932106281 L2.72990307,0.93346702 C2.68367961,0.936188498 2.65920837,0.937549237 2.65512983,0.937549237 L0,1.16615341 L0.197129455,3.82639834 C0.209365076,3.98832629 0.237914859,4.15025424 0.280059777,4.30946072 L0.420089666,17.4188212 L0.420089666,19.5429349 L0.428246747,19.5470171 L0.428246747,35.6445606 L2.83866415,35.6445606 L2.84002366,18.838072 L2.83186658,18.838072 L2.83186658,18.285612 L2.83186658,18.1155196 L2.83186658,18.0093819 C2.82642853,17.9372628 2.81963096,17.8569792 2.83186658,17.8433718 L2.68503912,3.83592351 C2.62522053,3.77877247 2.60754686,3.70393182 2.60346832,3.64814152 L2.5817161,3.35286113 L2.87673053,3.32700709 C2.88896615,3.32564635 2.94742523,3.32292487 3.04802922,3.31612118 L3.27370846,3.30251379 L3.27370846,3.30387453 C7.22853318,3.08751701 39.174381,1.67915204 40.0213579,10.42054 C40.2320824,12.6086085 38.9487017,14.4007019 36.203844,15.7464728 C32.8608003,17.3861634 27.6796945,18.1794743 22.6685278,18.5427917 L23.6065921,18.7673136 C25.015048,19.1333524 26.2454078,19.4163862 27.3139853,19.6790088 C30.506123,20.3920361 32.367297,20.835637 34.1509786,23.5162931 C34.5289234,24.085082 34.8755993,24.6239347 35.2086801,25.1396548 C37.4586749,28.6313113 39.0860126,31.1554823 45.6252724,35.4921578 L46.942641,33.5013965 C40.8112352,29.4368689 39.3769485,27.2106997 37.2058054,23.840149 C36.8672866,23.3135429 36.5138131,22.7665258 36.1290708,22.1882117 C35.2521846,20.8696555 34.2950871,19.9770107 33.2686544,19.3306596 L33.2686544,19.3306596 Z M3.28458457,3.90396047 L3.42597397,17.8433718 C5.00572864,17.9699205 12.4776147,18.4570651 20.2146059,18.0951085 L20.2146059,18.0964692 L20.2146059,18.0951085 C27.4784865,17.7549237 34.9748438,16.6649717 38.0514228,13.815584 C39.0996077,12.8453771 39.5482472,11.7527036 39.4245314,10.477691 C39.0860126,6.97514861 32.724849,4.72448614 21.030314,3.96927594 C12.9887918,3.44947361 5.05331161,3.81143021 3.28458457,3.90396047 L3.28458457,3.90396047 Z M20.9392266,6.36689823 C33.8709189,7.21191721 36.9339027,9.78779632 37.0236306,10.7090167 C37.0630565,11.1185992 36.9842047,11.4928024 36.4743872,11.9921937 C32.1606509,16.2091241 13.3395463,16.0662465 5.87989581,15.604956 L5.70723759,6.20088806 C9.01357438,6.08522524 14.9614459,5.97636611 20.9392266,6.36689823 L20.9392266,6.36689823 Z M14.4992113,18.8190217 C9.73683555,18.8190217 4.90920318,18.5781709 3.42597397,18.3903889 L3.42597397,20.8315548 C3.43005251,20.8315548 3.43549057,20.8315548 3.43956911,20.8329156 L3.43820959,35.6445606 L5.8187177,35.6445606 L5.8187177,20.9839576 C6.14907947,21.0002865 6.50255298,21.0166153 6.89273335,21.0356657 C8.69952676,21.1241137 11.347859,21.2180047 14.371417,21.2180047 C14.9655244,21.2180047 15.575946,21.2139225 16.1958841,21.2057581 C17.4344009,21.1894292 18.6130991,21.1526893 19.764607,21.1037026 C22.5529691,22.0031512 24.7540215,22.4304233 26.5363436,22.7719688 C29.7203242,23.3829406 30.5972104,23.6074626 31.6413168,25.1777555 C32.0111044,25.732937 32.3496233,26.2595431 32.6759065,26.7643773 C35.0319434,30.422044 36.8931173,33.3108931 43.966666,38 L45.2949106,35.9929098 C38.6496088,31.5854759 36.9950808,29.0177612 34.7056601,25.4648714 C34.3739389,24.9505121 34.0286224,24.4143809 33.6520372,23.8483134 C32.0083854,21.3772112 30.2315013,21.0356657 27.0040163,20.4165294 C26.4833226,20.3171954 25.9123269,20.2042541 25.314141,20.0790661 L20.1982918,18.7169663 C20.172461,18.7088018 20.1493493,18.7033589 20.1235185,18.6951944 L20.114002,18.6951944 L20.1072044,18.6938337 C18.7449719,18.7564277 17.4208057,18.7918069 16.1809295,18.8081358 C15.626248,18.8149395 15.0634094,18.8190217 14.4992113,18.8190217 L14.4992113,18.8190217 Z M345.158721,12.5487359 L343.054194,12.5582611 L343.157517,35.9548091 L348.341342,35.9316766 L348.238019,12.5351286 L345.735154,12.5460145 L345.838477,35.9412017 L345.262044,35.9439232 L345.158721,12.5487359 Z M392.983686,30.6492874 L367.706252,30.7241281 L367.714409,33.321779 L392.990483,33.2469383 L392.993202,33.8470243 L367.715768,33.9218649 L367.722566,36.1194586 L393,36.0459787 L392.983686,30.6492874 Z" id="Fill-1" fill="#FFFEFE" mask="url(#mask-2)"></path>
        </g>
    </g>
</svg>