<?xml version="1.0" encoding="UTF-8"?>
<svg width="38px" height="38px" viewBox="0 0 38 38" version="1.1" xmlns="http://www.w3.org/2000/svg" xmlns:xlink="http://www.w3.org/1999/xlink">
    <title>Twitter Copy</title>
    <defs>
        <polygon id="path-1" points="0 0 17.87225 0 17.87225 24.62195 0 24.62195"></polygon>
    </defs>
    <g id="Twitter-Copy" stroke="none" stroke-width="1" fill="none" fill-rule="evenodd">
        <rect fill="#FFFFFF" opacity="0" x="0" y="0" width="38" height="38"></rect>
        <g id="Group-3" transform="translate(10.000000, 6.500000)">
            <mask id="mask-2" fill="white">
                <use xlink:href="#path-1"></use>
            </mask>
            <g id="Clip-2"></g>
            <path d="M6.85175,17.562 L6.85175,17.562 C7.42725,18.1545 8.12525,18.4545 8.94925,18.4545 L14.87325,18.4545 C15.70025,18.4545 16.40125,18.7565 16.99125,19.3615 C17.58275,19.965 17.87225,20.693 17.87225,21.5385 C17.87225,22.385 17.57975,23.112 16.99125,23.713 C16.40125,24.32 15.70025,24.622 14.87625,24.622 L8.95175,24.622 C6.48525,24.622 4.37475,23.7205 2.62525,21.9165 C0.87325,20.1125 -0.00025,17.9405 -0.00025,15.3985 L-0.00025,3.086 C-0.00025,2.214 0.29025,1.482 0.87325,0.8875 C1.45625,0.2965 2.16825,0 3.00775,0 C3.82625,0 4.52475,0.301 5.11025,0.9065 C5.69375,1.513 5.98375,2.2365 5.98375,3.084 L5.98375,6.168 L14.86275,6.168 C15.69225,6.168 16.39575,6.469 16.98425,7.077 C17.58075,7.681 17.87175,8.4025 17.87175,9.2545 C17.87175,10.096 17.57825,10.8265 16.98925,11.431 C16.40125,12.0335 15.70025,12.3375 14.87325,12.3375 L5.98525,12.3375 L5.98525,15.394 C5.98525,16.2445 6.27125,16.9665 6.85175,17.562" id="Fill-1" fill="#EAEAEA" mask="url(#mask-2)"></path>
        </g>
        <rect id="Outline" stroke="#FFFFFF" stroke-width="0.5" x="0.25" y="0.25" width="37" height="37"></rect>
    </g>
</svg>